<?xml version="1.0" encoding="UTF-8" standalone="no"?>
<svg
   xmlns:dc="http://purl.org/dc/elements/1.1/"
   xmlns:cc="http://creativecommons.org/ns#"
   xmlns:rdf="http://www.w3.org/1999/02/22-rdf-syntax-ns#"
   xmlns:svg="http://www.w3.org/2000/svg"
   xmlns="http://www.w3.org/2000/svg"
   xmlns:sodipodi="http://sodipodi.sourceforge.net/DTD/sodipodi-0.dtd"
   xmlns:inkscape="http://www.inkscape.org/namespaces/inkscape"
   aria-hidden="true"
   focusable="false"
   data-prefix="fas"
   data-icon="sticky-note"
   class="svg-inline--fa fa-sticky-note fa-w-14"
   role="img"
   viewBox="0 0 448 512"
   version="1.1"
   id="svg4"
   sodipodi:docname="doc.svg"
   inkscape:version="0.92.2 (5c3e80d, 2017-08-06)">
  <metadata
     id="metadata10">
    <rdf:RDF>
      <cc:Work
         rdf:about="">
        <dc:format>image/svg+xml</dc:format>
        <dc:type
           rdf:resource="http://purl.org/dc/dcmitype/StillImage" />
        <dc:title></dc:title>
      </cc:Work>
    </rdf:RDF>
  </metadata>
  <defs
     id="defs8" />
  <sodipodi:namedview
     pagecolor="#ffffff"
     bordercolor="#666666"
     borderopacity="1"
     objecttolerance="10"
     gridtolerance="10"
     guidetolerance="10"
     inkscape:pageopacity="0"
     inkscape:pageshadow="2"
     inkscape:window-width="2400"
     inkscape:window-height="1271"
     id="namedview6"
     showgrid="false"
     inkscape:zoom="1.84375"
     inkscape:cx="138.55557"
     inkscape:cy="315.45757"
     inkscape:window-x="-9"
     inkscape:window-y="-9"
     inkscape:window-maximized="1"
     inkscape:current-layer="svg4" />
  <g
     id="g1037"
     inkscape:export-filename="C:\Users\sofie\Documents\LiTH\5th year\HT - 2017\TSRT10 - CDIO Reglertekniskt projektkurs\TSRT10_hemsida_NEW\images\testplan.png"
     inkscape:export-xdpi="274.72"
     inkscape:export-ydpi="274.72"
     transform="translate(9.7627119,-23.322034)">
    <circle
       r="75"
       cy="79.576286"
       cx="224.69492"
       id="path947"
       style="opacity:1;fill:#fffcfc;fill-opacity:1;stroke:none;stroke-width:8.7130022;stroke-linecap:round;stroke-linejoin:miter;stroke-miterlimit:4;stroke-dasharray:none;stroke-dashoffset:0;stroke-opacity:1;paint-order:stroke fill markers" />
    <path
       style="fill:#000000;fill-opacity:1;stroke-width:1"
       inkscape:connector-curvature="0"
       d="m 236.61017,88.225988 h 5.8983 c 0.98306,0 1.9661,-0.98531 1.9661,-1.970622 V 65.563842 c 0,-0.98531 -0.98304,-1.970619 -1.9661,-1.970619 h -5.8983 c -0.98305,0 -1.96611,0.985309 -1.96611,1.970619 v 20.691524 c 0,0.985312 0.98306,1.970622 1.96611,1.970622 z m 14.74577,0 h 5.89829 c 0.98306,0 1.9661,-0.98531 1.9661,-1.970622 V 50.784183 c 0,-0.985311 -0.98304,-1.970622 -1.9661,-1.970622 h -5.89829 c -0.98306,0 -1.96611,0.985311 -1.96611,1.970622 v 35.471183 c 0,0.985312 0.98305,1.970622 1.96611,1.970622 z m -44.23729,0 h 5.8983 c 0.98305,0 1.9661,-0.98531 1.9661,-1.970622 V 75.41695 c 0,-0.985311 -0.98305,-1.970622 -1.9661,-1.970622 h -5.8983 c -0.98305,0 -1.96611,0.985311 -1.96611,1.970622 v 10.838416 c 0,0.985312 0.98306,1.970622 1.96611,1.970622 z m 14.74576,0 h 5.89831 c 0.98304,0 1.9661,-0.98531 1.9661,-1.970622 v -30.54463 c 0,-0.985311 -0.98306,-1.970621 -1.9661,-1.970621 h -5.89831 c -0.98307,0 -1.96611,0.98531 -1.96611,1.970621 v 30.54463 c 0,0.985312 0.98304,1.970622 1.96611,1.970622 z m 39.81355,9.853104 H 195.32204 V 51.276837 c 0,-1.360959 -1.09979,-2.463276 -2.45763,-2.463276 h -4.91526 c -1.35783,0 -2.45762,1.102317 -2.45762,2.463276 v 51.728813 c 0,2.72038 2.20111,4.92655 4.91524,4.92655 h 71.27119 c 1.35784,0 2.45764,-1.10232 2.45764,-2.46327 v -4.92655 c 0,-1.360972 -1.0998,-2.463288 -2.45764,-2.463288 z"
       id="path827" />
  </g>
  <g
     id="g1041"
     inkscape:export-filename="C:\Users\sofie\Documents\LiTH\5th year\HT - 2017\TSRT10 - CDIO Reglertekniskt projektkurs\TSRT10_hemsida_NEW\images\testprotokoll.png"
     inkscape:export-xdpi="274.72"
     inkscape:export-ydpi="274.72"
     transform="translate(37.423729,-20.067797)">
    <circle
       r="75"
       cy="74.305084"
       cx="412.2034"
       id="path947-7"
       style="opacity:1;fill:#ffffff;fill-opacity:1;stroke:none;stroke-width:8.7130022;stroke-linecap:round;stroke-linejoin:miter;stroke-miterlimit:4;stroke-dasharray:none;stroke-dashoffset:0;stroke-opacity:1;paint-order:stroke fill markers" />
    <path
       style="fill:#060606;fill-opacity:1;stroke-width:0.99999982"
       inkscape:connector-curvature="0"
       d="m 398.79941,105.02492 -26.6168,-28.117805 c -1.59909,-1.689269 -1.59909,-4.428218 0,-6.117655 l 5.79091,-6.117646 c 1.59909,-1.689437 4.19199,-1.689437 5.79107,0 l 17.93036,18.94134 38.40483,-40.570429 c 1.59908,-1.689261 4.19198,-1.689261 5.79107,0 l 5.79092,6.117654 c 1.59909,1.68927 1.59909,4.428219 0,6.117647 L 404.59049,105.0251 c -1.59925,1.68925 -4.19199,1.68925 -5.79108,-1.8e-4 z"
       id="path848" />
  </g>
  <g
     id="g1033"
     inkscape:export-filename="C:\Users\sofie\Documents\LiTH\5th year\HT - 2017\TSRT10 - CDIO Reglertekniskt projektkurs\TSRT10_hemsida_NEW\images\teknisk_rapport.png"
     inkscape:export-xdpi="274.72"
     inkscape:export-ydpi="274.72"
     transform="translate(-31.457627,-13.016949)">
    <circle
       r="75"
       cy="78.644066"
       cx="36.881359"
       id="path947-73"
       style="opacity:1;fill:#ffffff;fill-opacity:1;stroke:none;stroke-width:8.7130022;stroke-linecap:round;stroke-linejoin:miter;stroke-miterlimit:4;stroke-dasharray:none;stroke-dashoffset:0;stroke-opacity:1;paint-order:stroke fill markers" />
    <path
       style="fill:#000000;fill-opacity:1;stroke-width:1"
       inkscape:connector-curvature="0"
       id="path2"
       d="M 47.351091,89.956411 H 65.627126 V 47.767553 c 0,-2.125424 -1.4379,-3.835351 -3.22519,-3.835351 H 8.6489105 c -1.787288,0 -3.225181,1.709927 -3.225181,3.835351 v 63.922517 c 0,2.12543 1.437893,3.83535 3.225181,3.83535 H 44.12591 V 93.791762 c 0,-2.109442 1.451331,-3.835351 3.225181,-3.835351 z M 64.686446,98.745756 51.51695,114.40677 c -0.604723,0.71913 -1.424458,1.11865 -2.284502,1.11865 H 48.426152 V 95.070213 h 17.200974 v 0.974819 c 0,1.006779 -0.33596,1.981594 -0.94068,2.700724 z" />
  </g>
  <g
     id="g1049"
     inkscape:export-filename="C:\Users\sofie\Documents\LiTH\5th year\HT - 2017\TSRT10 - CDIO Reglertekniskt projektkurs\TSRT10_hemsida_NEW\images\projektdirektiv.png"
     inkscape:export-xdpi="274.72"
     inkscape:export-ydpi="274.72"
     transform="translate(-14.644068,-13.016949)">
    <circle
       r="75"
       cy="253.28813"
       cx="226.16949"
       id="path947-5-0"
       style="opacity:1;fill:#ffffff;fill-opacity:1;stroke:none;stroke-width:8.7130022;stroke-linecap:round;stroke-linejoin:miter;stroke-miterlimit:4;stroke-dasharray:none;stroke-dashoffset:0;stroke-opacity:1;paint-order:stroke fill markers" />
    <path
       style="fill:currentColor;stroke-width:1"
       inkscape:connector-curvature="0"
       d="m 214.12322,283.36454 c 0.002,0.97959 0.28813,1.93894 0.82588,2.75501 l 2.63328,4.00092 a 4.9291217,4.9820659 0 0 0 4.10478,2.22394 h 9.50848 a 4.9291217,4.9820659 0 0 0 4.10477,-2.22394 l 2.63329,-4.00092 a 4.9289676,4.9819105 0 0 0 0.82588,-2.75501 l 0.006,-5.97255 h -24.65024 z m -14.80123,-43.34973 c 0,6.9101 2.53467,13.21439 6.71186,18.03137 2.54545,2.93567 6.52696,9.06864 8.04468,14.24226 0.006,0.0405 0.0108,0.081 0.017,0.12148 h 24.69029 c 0.006,-0.0405 0.0108,-0.0794 0.017,-0.12148 1.51773,-5.17362 5.49923,-11.30659 8.04469,-14.24226 4.1772,-4.81698 6.71187,-11.12127 6.71187,-18.03137 0,-15.16734 -12.18644,-27.45665 -27.20339,-27.40993 -15.71803,0.0483 -27.0339,12.9216 -27.0339,27.40993 z m 27.11864,-12.45907 c -6.79661,0 -12.32666,5.58945 -12.32666,12.45907 0,1.37672 -1.10324,2.49182 -2.46532,2.49182 -1.36211,0 -2.46535,-1.1151 -2.46535,-2.49182 0,-9.61839 7.74115,-17.44268 17.25733,-17.44268 1.36209,0 2.46533,1.11508 2.46533,2.49181 0,1.37673 -1.10324,2.4918 -2.46533,2.4918 z"
       id="path890" />
  </g>
  <g
     id="g1053"
     inkscape:export-filename="C:\Users\sofie\Documents\LiTH\5th year\HT - 2017\TSRT10 - CDIO Reglertekniskt projektkurs\TSRT10_hemsida_NEW\images\projektplan.png"
     inkscape:export-xdpi="274.72"
     inkscape:export-ydpi="274.72"
     transform="translate(44.474576,-6.5084746)">
    <circle
       r="75"
       cy="255.45763"
       cx="401.89832"
       id="path947-5-4"
       style="opacity:1;fill:#ffffff;fill-opacity:1;stroke:none;stroke-width:8.7130022;stroke-linecap:round;stroke-linejoin:miter;stroke-miterlimit:4;stroke-dasharray:none;stroke-dashoffset:0;stroke-opacity:1;paint-order:stroke fill markers" />
    <path
       style="fill:currentColor;stroke-width:0.99999988"
       inkscape:connector-curvature="0"
       d="m 438.87663,234.94533 -6.73738,6.54228 c -0.68689,0.667 -1.79761,0.667 -2.48449,0 l -16.2223,-15.75256 c -0.68689,-0.66701 -0.68689,-1.74556 0,-2.41257 l 6.73736,-6.54227 c 2.73296,-2.65381 7.1758,-2.65381 9.92337,0 l 8.78344,8.52909 c 2.74756,2.65381 2.74756,6.96803 0,9.63603 z m -31.2316,-6.00301 -38.37819,37.26689 -3.09831,17.24267 c -0.42381,2.3274 1.66608,4.3426 4.0629,3.94524 l 17.75684,-3.0228 38.37819,-37.26688 c 0.68687,-0.66699 0.68687,-1.74554 0,-2.41256 l -16.22231,-15.75256 c -0.70151,-0.667 -1.81224,-0.667 -2.49912,0 z m -23.39811,34.07379 c -0.80382,-0.78052 -0.80382,-2.02938 0,-2.80992 l 22.50661,-21.85491 c 0.8038,-0.78053 2.0899,-0.78053 2.89371,0 0.8038,0.78055 0.8038,2.02939 0,2.80993 l -22.50662,21.8549 c -0.80381,0.78055 -2.0899,0.78055 -2.8937,0 z m -5.27592,11.93505 h 7.01506 v 5.15152 l -9.42648,1.60364 -4.54517,-4.41355 1.65146,-9.15352 h 5.30513 z"
       id="path911" />
  </g>
  <g
     id="g1057"
     inkscape:export-filename="C:\Users\sofie\Documents\LiTH\5th year\HT - 2017\TSRT10 - CDIO Reglertekniskt projektkurs\TSRT10_hemsida_NEW\images\kravspec.png"
     inkscape:export-xdpi="274.72"
     inkscape:export-ydpi="274.72"
     transform="translate(4.3389831,15.186441)">
    <circle
       r="75"
       cy="387.7966"
       cx="320"
       id="path947-5-7"
       style="opacity:1;fill:#ffffff;fill-opacity:1;stroke:none;stroke-width:8.7130022;stroke-linecap:round;stroke-linejoin:miter;stroke-miterlimit:4;stroke-dasharray:none;stroke-dashoffset:0;stroke-opacity:1;paint-order:stroke fill markers" />
    <path
       style="fill:currentColor;stroke-width:0.99999994"
       inkscape:connector-curvature="0"
       d="M 350.63086,410.64282 335.73958,393.7627 c -2.93757,-3.3299 -7.32484,-3.97857 -10.86009,-2.00371 l -13.55603,-15.36652 v -8.95181 l -16.2774,-13.83854 -8.13871,9.22569 12.20806,18.45138 h 7.89709 l 13.55603,15.36654 c -1.72948,4.00741 -1.16994,8.98062 1.76762,12.31052 l 14.89128,16.88013 c 1.85664,2.10462 4.85779,2.10462 6.70171,0 l 6.70172,-7.59678 c 1.84393,-2.1046 1.84393,-5.50658 0,-7.59678 z m -21.54212,-24.60663 c 3.59883,0 6.98147,1.58566 9.52481,4.46868 l 2.46706,2.79655 c 2.00923,-0.99465 3.91675,-2.3785 5.56992,-4.25247 4.7179,-5.34802 6.32021,-12.87272 4.81963,-19.7055 -0.27976,-1.29735 -1.71675,-1.74423 -2.55606,-0.79282 l -9.46124,10.72486 -8.63466,-1.62891 -1.43699,-9.78788 9.46125,-10.72486 c 0.8393,-0.95141 0.43237,-2.58031 -0.72486,-2.91187 -6.02771,-1.68656 -12.66585,0.12974 -17.37104,5.46334 -3.62427,4.10832 -5.32831,9.5284 -5.23929,14.93409 l 10.44043,11.83483 c 1.03006,-0.2739 2.09826,-0.41804 3.14104,-0.41804 z m -13.21269,11.8204 -7.21038,-8.17337 -19.38028,21.98308 c -3.17919,3.60379 -3.17919,9.44191 0,13.04571 3.17917,3.60377 8.32945,3.60377 11.50863,0 l 15.71787,-17.81712 c -0.96647,-2.86862 -1.25896,-5.9967 -0.63584,-9.0383 z m -20.82999,23.78498 c -1.67861,0 -3.05201,-1.55683 -3.05201,-3.45963 0,-1.91721 1.36069,-3.45963 3.05201,-3.45963 1.69133,0 3.05201,1.54242 3.05201,3.45963 0,1.9028 -1.36068,3.45963 -3.05201,3.45963 z"
       id="path932" />
  </g>
  <g
     id="g1045"
     inkscape:export-filename="C:\Users\sofie\Documents\LiTH\5th year\HT - 2017\TSRT10 - CDIO Reglertekniskt projektkurs\TSRT10_hemsida_NEW\images\designspec.png"
     inkscape:export-xdpi="274.72"
     inkscape:export-ydpi="274.72"
     transform="translate(-27.661017,-0.54237288)">
    <circle
       r="75"
       cy="255.45763"
       cx="37.423725"
       id="path947-5-0-9"
       style="opacity:1;fill:#ffffff;fill-opacity:1;stroke:none;stroke-width:8.7130022;stroke-linecap:round;stroke-linejoin:miter;stroke-miterlimit:4;stroke-dasharray:none;stroke-dashoffset:0;stroke-opacity:1;paint-order:stroke fill markers" />
    <path
       style="fill:currentColor;stroke-width:1"
       inkscape:connector-curvature="0"
       d="m 61.964748,262.46688 c -3.39619,3.29528 -7.13539,6.02649 -11.19048,7.95049 l 7.37265,15.26719 7.31434,3.73454 c 1.33,0.67914 2.83219,-0.35823 3.00573,-2.07475 l 0.95174,-9.4417 z m 5.76063,-15.32716 c 0.65891,-1.24322 0.25625,-2.91599 -0.82023,-3.62918 l -3.80563,-2.52373 c -1.01411,-0.67267 -2.25192,-0.23665 -2.88235,0.92715 -5.57354,10.29754 -15.166937,16.59471 -25.504625,16.59471 -3.244343,0 -6.403271,-0.68888 -9.410353,-1.8689 l 9.132422,-18.91257 c 0.0949,0.003 0.18167,0.034 0.276573,0.034 0.0949,0 0.183028,-0.0308 0.276577,-0.034 l 6.926595,14.34489 c 4.234049,-1.45231 8.074927,-4.17379 11.199961,-7.9294 l -7.021504,-14.54103 c 1.010048,-2.20928 1.635056,-4.70546 1.635056,-7.401 0,-8.59397 -5.827071,-15.56057 -13.015327,-15.56057 -7.188257,0 -13.015332,6.9666 -13.015332,15.56057 0,2.69554 0.625009,5.19172 1.633697,7.401 l -9.259861,19.17678 c -1.701483,-1.88186 -3.24841,-3.98577 -4.5662133,-6.32148 -0.649408,-1.15083 -1.893999,-1.5593 -2.898621,-0.86394 l -3.762244,2.60478 c -1.064272,0.73589 -1.441177,2.41513 -0.764649,3.64214 2.110923,3.8318 4.703142,7.16598 7.589563,10.05278 l -9.66388096,20.01155 0.951747,9.4417 c 0.17353596,1.71653 1.67572196,2.7539 3.00572496,2.07474 l 7.3143433,-3.73453 9.598805,-19.87701 c 4.364201,1.98397 9.04023,3.07321 13.836921,3.07321 13.428831,0 25.878815,-8.26817 33.012835,-21.74266 z M 34.712543,217.0138 c 2.395633,0 4.338438,2.32275 4.338438,5.18686 0,2.86412 -1.942805,5.18686 -4.338438,5.18686 -2.395637,0 -4.338444,-2.32274 -4.338444,-5.18686 0,-2.86411 1.942807,-5.18686 4.338444,-5.18686 z"
       id="path869" />
  </g>
</svg>
