<?xml version="1.0" encoding="UTF-8" standalone="no"?>
<svg
   xmlns:dc="http://purl.org/dc/elements/1.1/"
   xmlns:cc="http://creativecommons.org/ns#"
   xmlns:rdf="http://www.w3.org/1999/02/22-rdf-syntax-ns#"
   xmlns:svg="http://www.w3.org/2000/svg"
   xmlns="http://www.w3.org/2000/svg"
   xmlns:sodipodi="http://sodipodi.sourceforge.net/DTD/sodipodi-0.dtd"
   xmlns:inkscape="http://www.inkscape.org/namespaces/inkscape"
   aria-hidden="true"
   focusable="false"
   data-prefix="fas"
   data-icon="book"
   class="svg-inline--fa fa-book fa-w-14"
   role="img"
   viewBox="0 0 448 512"
   version="1.1"
   id="svg4"
   sodipodi:docname="book-solid.svg"
   inkscape:version="0.92.2 (5c3e80d, 2017-08-06)">
  <metadata
     id="metadata10">
    <rdf:RDF>
      <cc:Work
         rdf:about="">
        <dc:format>image/svg+xml</dc:format>
        <dc:type
           rdf:resource="http://purl.org/dc/dcmitype/StillImage" />
      </cc:Work>
    </rdf:RDF>
  </metadata>
  <defs
     id="defs8" />
  <sodipodi:namedview
     pagecolor="#ffffff"
     bordercolor="#666666"
     borderopacity="1"
     objecttolerance="10"
     gridtolerance="10"
     guidetolerance="10"
     inkscape:pageopacity="0"
     inkscape:pageshadow="2"
     inkscape:window-width="2400"
     inkscape:window-height="1271"
     id="namedview6"
     showgrid="false"
     inkscape:zoom="0.921875"
     inkscape:cx="-291.01903"
     inkscape:cy="256.19237"
     inkscape:window-x="-9"
     inkscape:window-y="-9"
     inkscape:window-maximized="1"
     inkscape:current-layer="svg4" />
  <g
     id="g4722"
     inkscape:export-filename="C:\Users\sofie\Documents\LiTH\5th year\HT - 2017\TSRT10 - CDIO Reglertekniskt projektkurs\TSRT10_hemsida_NEW\images\history.png"
     inkscape:export-xdpi="271.77744"
     inkscape:export-ydpi="271.77744">
    <circle
       r="115"
       cy="146.44069"
       cx="357.96609"
       id="path4611-0-0-5"
       style="opacity:1;fill:#9d0000;fill-opacity:1;stroke:none;stroke-width:2.51338601;stroke-linecap:round;stroke-linejoin:miter;stroke-miterlimit:4;stroke-dasharray:none;stroke-dashoffset:0;stroke-opacity:1;paint-order:stroke fill markers" />
    <path
       style="fill:#ffffff;fill-opacity:1;stroke-width:0.99999994"
       inkscape:connector-curvature="0"
       d="m 414.4389,147.01391 c 0.0554,27.6853 -24.34701,50.32387 -54.26943,50.34332 -12.92354,0.008 -24.7944,-4.15968 -34.12304,-11.12579 -2.42572,-1.81137 -2.60704,-5.17499 -0.40271,-7.2145 l 2.46732,-2.28287 c 1.88527,-1.74431 4.89503,-1.93517 6.98373,-0.40198 6.87292,5.04612 15.57087,8.05799 25.03528,8.05799 22.2721,0 40.29366,-16.67744 40.29366,-37.28114 0,-20.60695 -18.02506,-37.28115 -40.29366,-37.28115 -10.68964,0 -20.39845,3.8434 -27.60729,10.11697 l 11.11448,10.28352 c 2.2074,2.04236 0.64404,5.53423 -2.4774,5.53423 H 309.325 c -1.93519,0 -3.50379,-1.45134 -3.50379,-3.24185 v -29.45473 c 0,-2.88807 3.77402,-4.334547 5.98141,-2.29238 l 10.81184,10.00349 c 9.74998,-8.62105 22.96433,-13.916599 37.51559,-13.916599 29.95965,0 54.25345,22.445679 54.30885,50.153469 z m -39.61743,15.96282 2.15111,-2.55904 c 1.78212,-2.11995 1.36933,-5.17518 -0.92193,-6.82386 l -8.913,-6.41418 v -21.14266 c 0,-2.68566 -2.35302,-4.86276 -5.2557,-4.86276 h -3.5038 c -2.90267,0 -5.25569,2.1771 -5.25569,4.86276 v 27.48491 l 14.32373,10.30783 c 2.29127,1.64868 5.59316,1.26695 7.37528,-0.853 z"
       id="path4541" />
  </g>
  <g
     id="g4718"
     inkscape:export-filename="C:\Users\sofie\Documents\LiTH\5th year\HT - 2017\TSRT10 - CDIO Reglertekniskt projektkurs\TSRT10_hemsida_NEW\images\cooperation.png"
     inkscape:export-xdpi="271.77744"
     inkscape:export-ydpi="271.77744">
    <circle
       r="115"
       cy="149.6949"
       cx="94.372879"
       id="path4611-0-0-7"
       style="opacity:1;fill:#9d0000;fill-opacity:1;stroke:none;stroke-width:2.51338601;stroke-linecap:round;stroke-linejoin:miter;stroke-miterlimit:4;stroke-dasharray:none;stroke-dashoffset:0;stroke-opacity:1;paint-order:stroke fill markers" />
    <path
       inkscape:export-ydpi="271.77744"
       inkscape:export-xdpi="271.77744"
       inkscape:export-filename="C:\Users\sofie\Documents\LiTH\5th year\HT - 2017\TSRT10 - CDIO Reglertekniskt projektkurs\TSRT10_hemsida_NEW\images\cooperation.png"
       style="fill:#ffffff;fill-opacity:1;stroke-width:0.99999994"
       inkscape:connector-curvature="0"
       d="m 135.63118,122.55123 -9.66564,-9.8887 a 11.422513,11.686126 0 0 0 -8.04115,-3.38626 H 71.870448 c -3.00528,0 -5.90904,1.2257 -8.04116,3.38626 l -9.66564,9.8887 h -23.96105 v 53.12065 h 12.99583 c 3.57384,0 6.45729,-2.94999 6.4776,-6.58554 h 1.84785 l 17.17883,15.87178 c 6.27455,5.21443 14.98582,5.33908 21.44312,0.78944 2.53824,2.24367 5.27955,3.30317 8.34575,3.30317 3.695682,0 7.168002,-1.53732 9.909312,-4.9859 4.48761,1.80738 9.78747,0.54013 12.9958,-3.49014 l 5.32018,-6.71019 c 1.13713,-1.43344 1.84784,-3.07464 2.21335,-4.77816 h 11.75715 c 0.0203,3.63555 2.92406,6.58554 6.47761,6.58554 h 12.99581 v -53.12065 z m -95.681712,46.47279 c -1.78692,0 -3.24895,-1.49578 -3.24895,-3.32395 0,-1.82817 1.46203,-3.32393 3.24895,-3.32393 1.78692,0 3.24896,1.49576 3.24896,3.32393 0,1.84895 -1.46204,3.32395 -3.24896,3.32395 z m 79.193272,-1.43345 -5.29986,6.68943 c -0.56856,0.70632 -1.58386,0.83098 -2.29458,0.24928 l -4.85311,-4.03027 -6.09179,7.58273 c -1.218372,1.51654 -3.045902,0.99718 -3.655092,0.49859 l -7.47259,-6.544 -3.16772,3.98873 c -2.82253,3.55245 -7.95995,4.09259 -11.22921,1.37112 l -19.7577,-18.28166 h -5.62475 v -26.61225 h 8.50819 l 12.52879,-12.79716 c 0.40611,-0.16619 0.75132,-0.31161 1.15744,-0.4778 h 11.51348 l -7.85841,7.37498 c -5.96995,5.58836 -6.31516,15.02002 -0.89346,21.04466 3.00528,3.36548 12.42725,8.55913 20.61055,0.91408 l 1.66509,-1.55809 21.971062,18.24009 c 0.6904,0.58169 0.79193,1.6412 0.24367,2.34754 z m 21.52432,-8.47605 h -14.05172 c -0.46704,-0.58168 -0.995,-1.12183 -1.56356,-1.59964 l -20.85423,-17.32601 2.53825,-2.36831 c 1.31988,-1.24647 1.42142,-3.3447 0.20306,-4.69505 l -2.21336,-2.43064 c -1.21835,-1.35034 -3.26925,-1.43344 -4.58914,-0.20774 l -11.208892,10.51194 c -1.92908,1.8074 -5.21863,1.95282 -7.02588,0 -1.88845,-2.05668 -1.72601,-5.21441 0.24368,-7.04258 l 13.32072,-12.48554 c 1.50263,-1.41266 3.45201,-2.18132 5.482622,-2.18132 l 16.99609,-0.0416 c 0.42642,0 0.83252,0.16619 1.11681,0.47781 l 12.5288,12.79715 h 9.07675 z m 9.74687,9.9095 c -1.78692,0 -3.24895,-1.49578 -3.24895,-3.32395 0,-1.82817 1.46203,-3.32393 3.24895,-3.32393 1.78693,0 3.24896,1.49576 3.24896,3.32393 0,1.84895 -1.46203,3.32395 -3.24896,3.32395 z"
       id="path4562" />
  </g>
  <g
     id="g4714"
     inkscape:export-filename="C:\Users\sofie\Documents\LiTH\5th year\HT - 2017\TSRT10 - CDIO Reglertekniskt projektkurs\TSRT10_hemsida_NEW\images\liu.png"
     inkscape:export-xdpi="271.77744"
     inkscape:export-ydpi="271.77744">
    <circle
       r="115"
       cy="146.15253"
       cx="-175.98302"
       id="path4611-0-0"
       style="opacity:1;fill:#9d0000;fill-opacity:1;stroke:none;stroke-width:2.51338601;stroke-linecap:round;stroke-linejoin:miter;stroke-miterlimit:4;stroke-dasharray:none;stroke-dashoffset:0;stroke-opacity:1;paint-order:stroke fill markers" />
    <path
       inkscape:export-ydpi="271.77744"
       inkscape:export-xdpi="271.77744"
       inkscape:export-filename="C:\Users\sofie\Documents\LiTH\5th year\HT - 2017\TSRT10 - CDIO Reglertekniskt projektkurs\TSRT10_hemsida_NEW\images\liu.png"
       style="fill:#ffffff;fill-opacity:1;stroke:none;stroke-width:0.99999988;stroke-opacity:1"
       inkscape:connector-curvature="0"
       d="m -113.62044,124.24439 -55.55073,-18.27828 c -3.02707,-0.99602 -6.29312,-0.99602 -9.3182,0 l -55.55273,18.27828 c -4.68798,1.54202 -4.68798,8.18149 0,9.72351 l 9.68464,3.18644 c -2.12492,2.81319 -3.43134,6.2449 -3.56079,10.00292 -1.91781,1.17732 -3.26804,3.30161 -3.26804,5.83753 0,2.29918 1.13117,4.23365 2.76021,5.47068 l -5.08429,24.50182 c -0.44211,2.13069 1.07142,4.1526 3.10873,4.1526 h 11.17428 c 2.03929,0 3.55281,-2.02191 3.1107,-4.1526 l -5.08428,-24.50182 c 1.62904,-1.23703 2.76021,-3.1715 2.76021,-5.47068 0,-2.46767 -1.2885,-4.53224 -3.11868,-5.73089 0.15135,-3.20349 1.68082,-6.03587 4.1204,-7.83171 l 38.94765,12.81611 c 1.80429,0.59292 5.26551,1.33301 9.31821,0 l 55.55271,-18.27827 c 4.68997,-1.54415 4.68997,-8.18149 0,-9.72564 z m -53.68071,34.5282 c -5.68173,1.86836 -10.52306,0.83607 -13.06221,0 l -28.88066,-9.50171 -2.82393,24.19896 c 0,7.53953 17.11889,13.65005 38.23668,13.65005 21.11781,0 38.23669,-6.11052 38.23669,-13.65005 l -2.82394,-24.20108 z"
       id="path4583" />
  </g>
</svg>
