<?xml version="1.0" encoding="UTF-8" standalone="no"?>
<svg
   xmlns:dc="http://purl.org/dc/elements/1.1/"
   xmlns:cc="http://creativecommons.org/ns#"
   xmlns:rdf="http://www.w3.org/1999/02/22-rdf-syntax-ns#"
   xmlns:svg="http://www.w3.org/2000/svg"
   xmlns="http://www.w3.org/2000/svg"
   xmlns:sodipodi="http://sodipodi.sourceforge.net/DTD/sodipodi-0.dtd"
   xmlns:inkscape="http://www.inkscape.org/namespaces/inkscape"
   aria-hidden="true"
   focusable="false"
   data-prefix="fas"
   data-icon="user-circle"
   class="svg-inline--fa fa-user-circle fa-w-16"
   role="img"
   viewBox="0 0 496 512"
   version="1.1"
   id="svg4"
   sodipodi:docname="user-circle-solid.svg"
   inkscape:version="0.92.2 (5c3e80d, 2017-08-06)">
  <metadata
     id="metadata10">
    <rdf:RDF>
      <cc:Work
         rdf:about="">
        <dc:format>image/svg+xml</dc:format>
        <dc:type
           rdf:resource="http://purl.org/dc/dcmitype/StillImage" />
      </cc:Work>
    </rdf:RDF>
  </metadata>
  <defs
     id="defs8" />
  <sodipodi:namedview
     pagecolor="#ffffff"
     bordercolor="#666666"
     borderopacity="1"
     objecttolerance="10"
     gridtolerance="10"
     guidetolerance="10"
     inkscape:pageopacity="0"
     inkscape:pageshadow="2"
     inkscape:window-width="2400"
     inkscape:window-height="1271"
     id="namedview6"
     showgrid="false"
     inkscape:zoom="2.6074563"
     inkscape:cx="-95.894238"
     inkscape:cy="31.689839"
     inkscape:window-x="-9"
     inkscape:window-y="-9"
     inkscape:window-maximized="1"
     inkscape:current-layer="svg4" />
  <path
     d="m 117.88225,353.75946 c -27.620967,0 -49.999999,22.379 -49.999999,50 0,27.621 22.379032,50 49.999999,50 27.62097,0 50,-22.379 50,-50 0,-27.621 -22.37903,-50 -50,-50 z m 0,19.355 c 9.79839,0 17.74194,7.94 17.74194,17.742 0,9.8 -7.94355,17.742 -17.74194,17.742 -9.79839,0 -17.74193,-7.94 -17.74193,-17.742 0,-9.8 7.94354,-17.742 17.74193,-17.742 z m 0,69.355 c -11.83468,0 -22.439516,-5.36 -29.53629,-13.75 3.790323,-7.14 11.209678,-12.057 19.85887,-12.057 0.48387,0 0.96774,0.081 1.43145,0.2 2.62097,0.8 5.36291,1.39 8.24597,1.39 2.88307,0 5.64516,-0.5 8.24597,-1.39 0.46371,-0.1 0.94758,-0.2 1.43145,-0.2 8.64919,0 16.06855,4.92 19.85887,12.057 -7.09677,8.39 -17.70161,13.75 -29.53629,13.75 z"
     id="path2"
     inkscape:connector-curvature="0"
     style="fill:#8b0000;stroke-width:1.00000012;fill-opacity:1"
     inkscape:export-filename="C:\Users\sofie\Documents\LiTH\5th year\HT - 2017\TSRT10 - CDIO Reglertekniskt projektkurs\TSRT10_hemsida_NEW\images\members.png"
     inkscape:export-xdpi="274.72"
     inkscape:export-ydpi="274.72" />
</svg>
